<svg width="252" height="72" viewBox="0 0 252 72" fill="none" xmlns="http://www.w3.org/2000/svg"><path d="M0 16C0 7.163 7.163 0 16 0h220c8.837 0 16 7.163 16 16v40c0 8.837-7.163 16-16 16H16C7.163 72 0 64.837 0 56V16z" fill="#F5F5F5"/><path d="M221.014 34.16h-.17V16.44h-4.493v30.78h4.493v-8.88h.13l8.947 8.88H236l-11.176-11.17 11.091-9.934h-6.039l-8.862 8.045zm-16.183 13.059h4.493V26.114h-4.493V47.22zM207.06 16c-1.8 0-3.127 1.45-3.127 3.252 0 1.849 1.327 3.21 3.127 3.21 1.801 0 3.167-1.361 3.167-3.21 0-1.797-1.372-3.252-3.167-3.252zm-15.545 14.294h7.88v-4.18h-7.88v-6.329h-4.493V39.44c0 5.628 2.738 8.22 7.366 8.22 2.614 0 4.669-.969 6.294-2.11l-1.755-3.693c-1.242.794-2.738 1.45-4.155 1.45-1.8 0-3.251-1.143-3.251-3.96v-9.053h-.006zm-19.564 13.76c-3.381 0-4.493-1.409-4.493-2.77 0-1.363.943-2.638 4.025-2.945l5.65-.574v5.541c-1.242.44-3.172.748-5.182.748zm.429-18.38c-2.782 0-5.825.614-8.692 2.463l1.671 3.739c1.84-1.101 4.453-2.11 6.852-2.11 3.127 0 4.922 1.229 4.922 4.046v.354l-5.097.527c-5.65.574-9.076 2.637-9.076 6.55 0 3.872 2.613 6.416 9.206 6.416 3.342 0 7.191-.834 9.46-2.07V33.546c0-5.187-3.381-7.825-9.246-7.871zm-22.521 0c-2.569 0-5.312.794-7.366 2.11-1.626-1.409-3.94-2.11-6.723-2.11-3.426 0-7.106 1.409-9.037 3.472v18.073h4.493l-.045-15.65c1.626-1.322 3.342-1.583 5.007-1.583 2.828 0 4.493 1.716 4.493 4.707v12.526h4.493V34.687c0-1.142-.13-2.156-.384-3.078 1.287-.968 3.082-1.628 4.922-1.628 2.698 0 4.493 1.449 4.493 4.706V47.22h4.493V34.687c.023-5.982-3.358-9.013-8.839-9.013zm-42.989 8.88c.559-2.945 2.613-4.88 5.695-4.88 2.868 0 4.708 1.715 5.221 4.88H106.87zm15.5 1.762c0-6.463-3.98-10.642-9.72-10.642-6.04 0-10.488 4.353-10.488 10.816 0 6.99 4.623 11.17 10.793 11.17 3.082 0 5.91-.795 8.433-2.945l-2.224-3.652c-1.711 1.803-3.895 2.637-5.95 2.637-2.997 0-6.079-1.536-6.463-5.674h15.534c.04-.522.085-1.142.085-1.71zm-25.434-7.17c-2.653-2.77-6.593-3.472-9.162-3.472C80.37 25.674 76 30.074 76 36.71c0 6.33 4.154 10.509 10.104 10.509 1.71 0 2.653-.835 2.653-2.244 0-1.321-.943-2.069-2.653-2.069-3.297 0-5.611-2.417-5.611-6.202 0-4.086 2.529-6.73 7.022-6.73 1.456 0 3.556.395 4.752 1.583l-.045 15.39c0 3.25-2.867 4.746-6.423 4.746-3.251 0-5.396-1.495-5.825-1.715-1.756-.881-3.466-.047-3.466 1.669 0 2.904 5.136 4.353 9.336 4.353 6.249 0 11.092-2.811 11.092-9.06V29.146z" fill="#2A4365"/><path d="M31.931 28.306a2.308 2.308 0 012.308-2.308h22.695a2.308 2.308 0 010 4.615H34.239a2.308 2.308 0 01-2.308-2.307z" fill="#000"/><path d="M21.31 36.766a2.308 2.308 0 012.308-2.307h34.074a2.308 2.308 0 010 4.615H23.618a2.308 2.308 0 01-2.308-2.308z" fill="#DD0B1A"/><path d="M16 45.23a2.308 2.308 0 012.308-2.308h39.384a2.308 2.308 0 010 4.616H18.308A2.308 2.308 0 0116 45.23z" fill="#FEC40E"/></svg>